<?xml version="1.0" encoding="UTF-8" standalone="no"?>
<!-- Created with Inkscape (http://www.inkscape.org/) -->

<svg
   width="413.93481mm"
   height="24.029348mm"
   viewBox="0 0 413.93482 24.029348"
   version="1.1"
   id="svg1"
   xmlns="http://www.w3.org/2000/svg"
   xmlns:svg="http://www.w3.org/2000/svg">
  <defs
     id="defs1">
    <clipPath
       clipPathUnits="userSpaceOnUse"
       id="clipath_lpe_path-effect15-7-56-2-8">
      <path
         id="path112-3"
         style="display:none;fill:#ea00c0;fill-opacity:0.357553;stroke:#000000;stroke-width:0"
         d="m 103.29872,73.870225 h 41.2562 v 41.256195 h -31.59523 a 9.6609667,9.6609667 0 0 1 -9.66097,-9.66097 z" />
      <path
         id="lpe_path-effect15-7-56-2-6"
         style="fill:#ea00c0;fill-opacity:0.357553;stroke:#000000;stroke-width:0"
         class="powerclip"
         d="M 94.925385,68.870224 H 149.55492 V 123.49976 H 94.925385 Z m 8.373335,5.000001 v 31.595225 a 9.6609667,9.6609667 0 0 0 9.66097,9.66097 h 31.59523 V 73.870225 Z" />
    </clipPath>
    <clipPath
       clipPathUnits="userSpaceOnUse"
       id="clipath_lpe_path-effect15-62-7-8-0">
      <path
         id="path110-4"
         style="display:none;fill:#ea00c0;fill-opacity:0.357553;stroke:#000000;stroke-width:0"
         d="m 103.29872,73.870225 h 41.2562 v 41.256195 h -31.59523 a 9.6609667,9.6609667 0 0 1 -9.66097,-9.66097 z" />
      <path
         id="lpe_path-effect15-62-7-8-9"
         style="fill:#ea00c0;fill-opacity:0.357553;stroke:#000000;stroke-width:0"
         class="powerclip"
         d="M 94.925385,68.870224 H 149.55492 V 123.49976 H 94.925385 Z m 8.373335,5.000001 v 31.595225 a 9.6609667,9.6609667 0 0 0 9.66097,9.66097 h 31.59523 V 73.870225 Z" />
    </clipPath>
    <clipPath
       clipPathUnits="userSpaceOnUse"
       id="clipath_lpe_path-effect15-1-3-6-6-6">
      <path
         id="path109-4"
         style="display:none;fill:#ea00c0;fill-opacity:0.357553;stroke:#000000;stroke-width:0"
         d="m 103.29872,73.870225 h 41.2562 v 41.256195 h -31.59523 a 9.6609667,9.6609667 0 0 1 -9.66097,-9.66097 z" />
      <path
         id="lpe_path-effect15-1-3-6-6-8"
         style="fill:#ea00c0;fill-opacity:0.357553;stroke:#000000;stroke-width:0"
         class="powerclip"
         d="M 94.925385,68.870224 H 149.55492 V 123.49976 H 94.925385 Z m 8.373335,5.000001 v 31.595225 a 9.6609667,9.6609667 0 0 0 9.66097,9.66097 h 31.59523 V 73.870225 Z" />
    </clipPath>
    <clipPath
       clipPathUnits="userSpaceOnUse"
       id="clipPath52-0-2-7">
      <path
         id="path52-8-8-0"
         style="display:inline;fill:#d5e9ff;fill-opacity:0.418738;stroke-width:0.879999"
         d="m 70.40274,2.6647818 h 7.728363 V 26.69413 H 70.40274 Z"
         transform="translate(1.00026,-1.0047818)" />
    </clipPath>
    <clipPath
       clipPathUnits="userSpaceOnUse"
       id="clipPath52-1-5-9-4">
      <path
         id="path52-3-9-7-1"
         style="display:inline;fill:#d5e9ff;fill-opacity:0.418738;stroke-width:0.879999"
         d="m 70.40274,2.6647818 h 7.728363 V 26.69413 H 70.40274 Z"
         transform="translate(1.00026,-1.0047818)" />
    </clipPath>
    <clipPath
       clipPathUnits="userSpaceOnUse"
       id="clipPath52-1-6-7-3-1">
      <path
         id="path52-3-4-2-9-8"
         style="display:inline;fill:#d5e9ff;fill-opacity:0.418738;stroke-width:0.879999"
         d="m 70.40274,2.6647818 h 7.728363 V 26.69413 H 70.40274 Z"
         transform="translate(1.00026,-1.0047818)" />
    </clipPath>
    <clipPath
       clipPathUnits="userSpaceOnUse"
       id="clipPath52-5-2-0-5">
      <path
         id="path52-31-8-3-7"
         style="display:inline;fill:#d5e9ff;fill-opacity:0.418738;stroke-width:0.879999"
         d="m 70.40274,2.6647818 h 7.728363 V 26.69413 H 70.40274 Z"
         transform="translate(1.00026,-1.0047818)" />
    </clipPath>
    <clipPath
       clipPathUnits="userSpaceOnUse"
       id="clipPath52-1-67-0-0-4">
      <path
         id="path52-3-5-3-2-7"
         style="display:inline;fill:#d5e9ff;fill-opacity:0.418738;stroke-width:0.879999"
         d="m 70.40274,2.6647818 h 7.728363 V 26.69413 H 70.40274 Z"
         transform="translate(1.00026,-1.0047818)" />
    </clipPath>
    <clipPath
       clipPathUnits="userSpaceOnUse"
       id="clipPath52-1-6-4-3-2-8">
      <path
         id="path52-3-4-5-6-7-2"
         style="display:inline;fill:#d5e9ff;fill-opacity:0.418738;stroke-width:0.879999"
         d="m 70.40274,2.6647818 h 7.728363 V 26.69413 H 70.40274 Z"
         transform="translate(1.00026,-1.0047818)" />
    </clipPath>
    <clipPath
       clipPathUnits="userSpaceOnUse"
       id="clipath_lpe_path-effect15-14-1-1">
      <path
         id="path127"
         style="display:none;fill:#ea00c0;fill-opacity:0.357553;stroke:#000000;stroke-width:0"
         d="m 103.29872,73.870225 h 41.2562 v 41.256195 h -31.59523 a 9.6609667,9.6609667 0 0 1 -9.66097,-9.66097 z" />
      <path
         id="lpe_path-effect15-14-1-1"
         style="fill:#ea00c0;fill-opacity:0.357553;stroke:#000000;stroke-width:0"
         class="powerclip"
         d="M 94.925385,68.870224 H 149.55492 V 123.49976 H 94.925385 Z m 8.373335,5.000001 v 31.595225 a 9.6609667,9.6609667 0 0 0 9.66097,9.66097 h 31.59523 V 73.870225 Z" />
    </clipPath>
    <clipPath
       clipPathUnits="userSpaceOnUse"
       id="clipath_lpe_path-effect15-8-0-8-2">
      <path
         id="path128"
         style="display:none;fill:#ea00c0;fill-opacity:0.357553;stroke:#000000;stroke-width:0"
         d="m 103.29872,73.870225 h 41.2562 v 41.256195 h -31.59523 a 9.6609667,9.6609667 0 0 1 -9.66097,-9.66097 z" />
      <path
         id="lpe_path-effect15-8-0-8-2"
         style="fill:#ea00c0;fill-opacity:0.357553;stroke:#000000;stroke-width:0"
         class="powerclip"
         d="M 94.925385,68.870224 H 149.55492 V 123.49976 H 94.925385 Z m 8.373335,5.000001 v 31.595225 a 9.6609667,9.6609667 0 0 0 9.66097,9.66097 h 31.59523 V 73.870225 Z" />
    </clipPath>
    <clipPath
       clipPathUnits="userSpaceOnUse"
       id="clipath_lpe_path-effect15-1-4-8-1">
      <path
         id="path129"
         style="display:none;fill:#ea00c0;fill-opacity:0.357553;stroke:#000000;stroke-width:0"
         d="m 103.29872,73.870225 h 41.2562 v 41.256195 h -31.59523 a 9.6609667,9.6609667 0 0 1 -9.66097,-9.66097 z" />
      <path
         id="lpe_path-effect15-1-4-8-1"
         style="fill:#ea00c0;fill-opacity:0.357553;stroke:#000000;stroke-width:0"
         class="powerclip"
         d="M 94.925385,68.870224 H 149.55492 V 123.49976 H 94.925385 Z m 8.373335,5.000001 v 31.595225 a 9.6609667,9.6609667 0 0 0 9.66097,9.66097 h 31.59523 V 73.870225 Z" />
    </clipPath>
    <clipPath
       clipPathUnits="userSpaceOnUse"
       id="clipath_lpe_path-effect15-4-2-5-7">
      <path
         id="path131"
         style="display:none;fill:#ea00c0;fill-opacity:0.357553;stroke:#000000;stroke-width:0"
         d="m 103.29872,73.870225 h 41.2562 v 41.256195 h -31.59523 a 9.6609667,9.6609667 0 0 1 -9.66097,-9.66097 z" />
      <path
         id="lpe_path-effect15-4-2-5-7"
         style="fill:#ea00c0;fill-opacity:0.357553;stroke:#000000;stroke-width:0"
         class="powerclip"
         d="M 94.925385,68.870224 H 149.55492 V 123.49976 H 94.925385 Z m 8.373335,5.000001 v 31.595225 a 9.6609667,9.6609667 0 0 0 9.66097,9.66097 h 31.59523 V 73.870225 Z" />
    </clipPath>
    <clipPath
       clipPathUnits="userSpaceOnUse"
       id="clipath_lpe_path-effect15-8-1-9-5-5">
      <path
         id="path132"
         style="display:none;fill:#ea00c0;fill-opacity:0.357553;stroke:#000000;stroke-width:0"
         d="m 103.29872,73.870225 h 41.2562 v 41.256195 h -31.59523 a 9.6609667,9.6609667 0 0 1 -9.66097,-9.66097 z" />
      <path
         id="lpe_path-effect15-8-1-9-5-5"
         style="fill:#ea00c0;fill-opacity:0.357553;stroke:#000000;stroke-width:0"
         class="powerclip"
         d="M 94.925385,68.870224 H 149.55492 V 123.49976 H 94.925385 Z m 8.373335,5.000001 v 31.595225 a 9.6609667,9.6609667 0 0 0 9.66097,9.66097 h 31.59523 V 73.870225 Z" />
    </clipPath>
    <clipPath
       clipPathUnits="userSpaceOnUse"
       id="clipath_lpe_path-effect15-7-8-5-4-5">
      <path
         id="path133"
         style="display:none;fill:#ea00c0;fill-opacity:0.357553;stroke:#000000;stroke-width:0"
         d="m 103.29872,73.870225 h 41.2562 v 41.256195 h -31.59523 a 9.6609667,9.6609667 0 0 1 -9.66097,-9.66097 z" />
      <path
         id="lpe_path-effect15-7-8-5-4-5"
         style="fill:#ea00c0;fill-opacity:0.357553;stroke:#000000;stroke-width:0"
         class="powerclip"
         d="M 94.925385,68.870224 H 149.55492 V 123.49976 H 94.925385 Z m 8.373335,5.000001 v 31.595225 a 9.6609667,9.6609667 0 0 0 9.66097,9.66097 h 31.59523 V 73.870225 Z" />
    </clipPath>
    <clipPath
       clipPathUnits="userSpaceOnUse"
       id="clipath_lpe_path-effect15-4-1-5-7-1">
      <path
         id="path134"
         style="display:none;fill:#ea00c0;fill-opacity:0.357553;stroke:#000000;stroke-width:0"
         d="m 103.29872,73.870225 h 41.2562 v 41.256195 h -31.59523 a 9.6609667,9.6609667 0 0 1 -9.66097,-9.66097 z" />
      <path
         id="lpe_path-effect15-4-1-5-7-1"
         style="fill:#ea00c0;fill-opacity:0.357553;stroke:#000000;stroke-width:0"
         class="powerclip"
         d="M 94.925385,68.870224 H 149.55492 V 123.49976 H 94.925385 Z m 8.373335,5.000001 v 31.595225 a 9.6609667,9.6609667 0 0 0 9.66097,9.66097 h 31.59523 V 73.870225 Z" />
    </clipPath>
    <clipPath
       clipPathUnits="userSpaceOnUse"
       id="clipath_lpe_path-effect15-65-4-0-0">
      <path
         id="path135"
         style="display:none;fill:#ea00c0;fill-opacity:0.357553;stroke:#000000;stroke-width:0"
         d="m 103.29872,73.870225 h 41.2562 v 41.256195 h -31.59523 a 9.6609667,9.6609667 0 0 1 -9.66097,-9.66097 z" />
      <path
         id="lpe_path-effect15-65-4-0-0"
         style="fill:#ea00c0;fill-opacity:0.357553;stroke:#000000;stroke-width:0"
         class="powerclip"
         d="M 94.925385,68.870224 H 149.55492 V 123.49976 H 94.925385 Z m 8.373335,5.000001 v 31.595225 a 9.6609667,9.6609667 0 0 0 9.66097,9.66097 h 31.59523 V 73.870225 Z" />
    </clipPath>
    <clipPath
       clipPathUnits="userSpaceOnUse"
       id="clipath_lpe_path-effect15-8-7-5-8-6">
      <path
         id="path136"
         style="display:none;fill:#ea00c0;fill-opacity:0.357553;stroke:#000000;stroke-width:0"
         d="m 103.29872,73.870225 h 41.2562 v 41.256195 h -31.59523 a 9.6609667,9.6609667 0 0 1 -9.66097,-9.66097 z" />
      <path
         id="lpe_path-effect15-8-7-5-8-6"
         style="fill:#ea00c0;fill-opacity:0.357553;stroke:#000000;stroke-width:0"
         class="powerclip"
         d="M 94.925385,68.870224 H 149.55492 V 123.49976 H 94.925385 Z m 8.373335,5.000001 v 31.595225 a 9.6609667,9.6609667 0 0 0 9.66097,9.66097 h 31.59523 V 73.870225 Z" />
    </clipPath>
    <clipPath
       clipPathUnits="userSpaceOnUse"
       id="clipPath52-0-2-7-5">
      <path
         id="path52-8-8-0-2"
         style="display:inline;fill:#d5e9ff;fill-opacity:0.418738;stroke-width:0.879999"
         d="m 70.40274,2.6647818 h 7.728363 V 26.69413 H 70.40274 Z"
         transform="translate(1.00026,-1.0047818)" />
    </clipPath>
    <clipPath
       clipPathUnits="userSpaceOnUse"
       id="clipPath52-1-5-9-4-7">
      <path
         id="path52-3-9-7-1-5"
         style="display:inline;fill:#d5e9ff;fill-opacity:0.418738;stroke-width:0.879999"
         d="m 70.40274,2.6647818 h 7.728363 V 26.69413 H 70.40274 Z"
         transform="translate(1.00026,-1.0047818)" />
    </clipPath>
    <clipPath
       clipPathUnits="userSpaceOnUse"
       id="clipPath52-1-6-7-3-1-1">
      <path
         id="path52-3-4-2-9-8-8"
         style="display:inline;fill:#d5e9ff;fill-opacity:0.418738;stroke-width:0.879999"
         d="m 70.40274,2.6647818 h 7.728363 V 26.69413 H 70.40274 Z"
         transform="translate(1.00026,-1.0047818)" />
    </clipPath>
  </defs>
  <g
     id="layer7"
     transform="translate(11.517308,-237.43105)">
    <rect
       style="display:inline;fill:#3b4fff;fill-opacity:0.277247;stroke:none;stroke-width:1.03263;stroke-dasharray:none"
       id="rect39-3-2-0-1-9"
       width="413.93481"
       height="3.2418504"
       x="-11.517297"
       y="247.91476"
       ry="1.6209252" />
    <g
       id="g16-59-3-7"
       transform="matrix(0.53841815,0,0,0.53841815,-33.295996,197.65795)"
       style="display:inline">
      <rect
         style="display:inline;fill:#eeeeee;fill-opacity:1;stroke:#000000;stroke-width:0"
         id="rect3-5-32-1-1"
         width="44.629528"
         height="44.629528"
         x="99.925385"
         y="73.870224"
         ry="11.517296" />
      <path
         id="rect12-8-0-3"
         style="fill:#ead8c0;stroke:#000000;stroke-width:0"
         d="m 111.44268,73.870224 h 33.11224 v 33.112236 a 11.517295,11.517295 135 0 1 -11.51729,11.5173 l -21.59495,0 a 11.517295,11.517295 45 0 1 -11.517295,-11.5173 l 0,-21.594941 A 11.517295,11.517295 135 0 1 111.44268,73.870224 Z"
         clip-path="url(#clipath_lpe_path-effect15-14-1-1)" />
      <text
         xml:space="preserve"
         style="font-size:38.4416px;text-align:start;writing-mode:lr-tb;direction:ltr;text-anchor:start;fill:#000000;fill-opacity:1;stroke:#000000;stroke-width:0.88;stroke-dasharray:none"
         x="111.55862"
         y="105.84314"
         id="text16-7-4-4"><tspan
           id="tspan16-4-0-7"
           style="font-style:normal;font-variant:normal;font-weight:normal;font-stretch:normal;font-family:'Courier New';-inkscape-font-specification:'Courier New';fill:#000000;fill-opacity:1;stroke-width:0.88;stroke-dasharray:none"
           x="111.55862"
           y="105.84314">S</tspan></text>
    </g>
    <g
       id="g16-0-8-7-1"
       transform="matrix(0.53841815,0,0,0.53841815,-6.5745562,197.65795)"
       style="display:inline">
      <rect
         style="display:inline;fill:#eeeeee;fill-opacity:1;stroke:#000000;stroke-width:0"
         id="rect3-5-7-14-9-3"
         width="44.629528"
         height="44.629528"
         x="99.925385"
         y="73.870224"
         ry="11.517296" />
      <path
         id="rect12-6-35-0-7"
         style="fill:#ead8c0;stroke:#000000;stroke-width:0"
         d="m 111.44268,73.870224 h 33.11224 v 33.112236 a 11.517295,11.517295 135 0 1 -11.51729,11.5173 l -21.59495,0 a 11.517295,11.517295 45 0 1 -11.517295,-11.5173 l 0,-21.594941 A 11.517295,11.517295 135 0 1 111.44268,73.870224 Z"
         clip-path="url(#clipath_lpe_path-effect15-8-0-8-2)" />
      <text
         xml:space="preserve"
         style="font-size:38.4416px;text-align:start;writing-mode:lr-tb;direction:ltr;text-anchor:start;fill:#000000;fill-opacity:1;stroke:#000000;stroke-width:0.88;stroke-dasharray:none"
         x="111.55862"
         y="105.84314"
         id="text16-3-52-8-1"><tspan
           id="tspan16-6-6-1-2"
           style="font-style:normal;font-variant:normal;font-weight:normal;font-stretch:normal;font-family:'Courier New';-inkscape-font-specification:'Courier New';fill:#000000;fill-opacity:1;stroke-width:0.88;stroke-dasharray:none"
           x="111.55862"
           y="105.84314">W</tspan></text>
    </g>
    <g
       id="g16-2-8-4-7"
       transform="matrix(0.53841815,0,0,0.53841815,20.146884,197.65795)"
       style="display:inline">
      <rect
         style="display:inline;fill:#eeeeee;fill-opacity:1;stroke:#000000;stroke-width:0"
         id="rect3-5-6-9-0-5"
         width="44.629528"
         height="44.629528"
         x="99.925385"
         y="73.870224"
         ry="11.517296" />
      <path
         id="rect12-60-29-7-3"
         style="fill:#ead8c0;stroke:#000000;stroke-width:0"
         d="m 111.44268,73.870224 h 33.11224 v 33.112236 a 11.517295,11.517295 135 0 1 -11.51729,11.5173 l -21.59495,0 a 11.517295,11.517295 45 0 1 -11.517295,-11.5173 l 0,-21.594941 A 11.517295,11.517295 135 0 1 111.44268,73.870224 Z"
         clip-path="url(#clipath_lpe_path-effect15-1-4-8-1)" />
      <text
         xml:space="preserve"
         style="font-size:38.4416px;text-align:start;writing-mode:lr-tb;direction:ltr;text-anchor:start;fill:#000000;fill-opacity:1;stroke:#000000;stroke-width:0.88;stroke-dasharray:none"
         x="111.55862"
         y="105.84314"
         id="text16-38-59-9-4"><tspan
           id="tspan16-0-4-5-4"
           style="font-style:normal;font-variant:normal;font-weight:normal;font-stretch:normal;font-family:'Courier New';-inkscape-font-specification:'Courier New';fill:#000000;fill-opacity:1;stroke-width:0.88;stroke-dasharray:none"
           x="111.55862"
           y="105.84314">I</tspan></text>
    </g>
    <g
       id="g16-3-50-3-5"
       transform="matrix(0.53841815,0,0,0.53841815,46.868324,197.65795)"
       style="display:inline">
      <rect
         style="display:inline;fill:#eeeeee;fill-opacity:1;stroke:#000000;stroke-width:0"
         id="rect3-5-5-5-8-5"
         width="44.629528"
         height="44.629528"
         x="99.925385"
         y="73.870224"
         ry="11.517296" />
      <path
         id="rect12-1-8-2-1"
         style="fill:#ead8c0;stroke:#000000;stroke-width:0"
         d="m 111.44268,73.870224 h 33.11224 v 33.112236 a 11.517295,11.517295 135 0 1 -11.51729,11.5173 l -21.59495,0 a 11.517295,11.517295 45 0 1 -11.517295,-11.5173 l 0,-21.594941 A 11.517295,11.517295 135 0 1 111.44268,73.870224 Z"
         clip-path="url(#clipath_lpe_path-effect15-7-56-2-8)" />
      <text
         xml:space="preserve"
         style="font-size:38.4416px;text-align:start;writing-mode:lr-tb;direction:ltr;text-anchor:start;fill:#000000;fill-opacity:1;stroke:#000000;stroke-width:0.88;stroke-dasharray:none"
         x="111.55862"
         y="105.84314"
         id="text16-2-8-3-4"><tspan
           id="tspan16-01-0-2-1"
           style="font-style:normal;font-variant:normal;font-weight:normal;font-stretch:normal;font-family:'Courier New';-inkscape-font-specification:'Courier New';fill:#000000;fill-opacity:1;stroke-width:0.88;stroke-dasharray:none"
           x="111.55862"
           y="105.84314">F</tspan></text>
    </g>
    <g
       id="g16-4-1-1-2"
       transform="matrix(0.53841815,0,0,0.53841815,73.589764,197.65795)"
       style="display:inline">
      <rect
         style="display:inline;fill:#eeeeee;fill-opacity:1;stroke:#000000;stroke-width:0"
         id="rect3-5-3-3-0-6"
         width="44.629528"
         height="44.629528"
         x="99.925385"
         y="73.870224"
         ry="11.517296" />
      <path
         id="rect12-9-2-4-6"
         style="fill:#ead8c0;stroke:#000000;stroke-width:0"
         d="m 111.44268,73.870224 h 33.11224 v 33.112236 a 11.517295,11.517295 135 0 1 -11.51729,11.5173 l -21.59495,0 a 11.517295,11.517295 45 0 1 -11.517295,-11.5173 l 0,-21.594941 A 11.517295,11.517295 135 0 1 111.44268,73.870224 Z"
         clip-path="url(#clipath_lpe_path-effect15-4-2-5-7)" />
      <text
         xml:space="preserve"
         style="font-size:38.4416px;text-align:start;writing-mode:lr-tb;direction:ltr;text-anchor:start;fill:#000000;fill-opacity:1;stroke:#000000;stroke-width:0.88;stroke-dasharray:none"
         x="111.55862"
         y="105.84314"
         id="text16-8-2-0-3"><tspan
           id="tspan16-8-2-7-3"
           style="font-style:normal;font-variant:normal;font-weight:normal;font-stretch:normal;font-family:'Courier New';-inkscape-font-specification:'Courier New';fill:#000000;fill-opacity:1;stroke-width:0.88;stroke-dasharray:none"
           x="111.55862"
           y="105.84314">T</tspan></text>
    </g>
    <g
       id="g16-5-7-5-0"
       transform="matrix(0.53841815,0,0,0.53841815,128.06787,197.65795)"
       style="display:inline">
      <rect
         style="display:inline;fill:#eeeeee;fill-opacity:1;stroke:#000000;stroke-width:0"
         id="rect3-5-2-0-9-0"
         width="44.629528"
         height="44.629528"
         x="99.925385"
         y="73.870224"
         ry="11.517296" />
      <path
         id="rect12-0-3-0-8"
         style="fill:#ead8c0;stroke:#000000;stroke-width:0"
         d="m 111.44268,73.870224 h 33.11224 v 33.112236 a 11.517295,11.517295 135 0 1 -11.51729,11.5173 l -21.59495,0 a 11.517295,11.517295 45 0 1 -11.517295,-11.5173 l 0,-21.594941 A 11.517295,11.517295 135 0 1 111.44268,73.870224 Z"
         clip-path="url(#clipath_lpe_path-effect15-62-7-8-0)" />
      <text
         xml:space="preserve"
         style="font-size:38.4416px;text-align:start;writing-mode:lr-tb;direction:ltr;text-anchor:start;fill:#000000;fill-opacity:1;stroke:#000000;stroke-width:0.88;stroke-dasharray:none"
         x="111.55862"
         y="105.84314"
         id="text16-0-1-5-1"><tspan
           id="tspan16-3-3-1-3"
           style="font-style:normal;font-variant:normal;font-weight:normal;font-stretch:normal;font-family:'Courier New';-inkscape-font-specification:'Courier New';fill:#000000;fill-opacity:1;stroke-width:0.88;stroke-dasharray:none"
           x="111.55862"
           y="105.84314">G</tspan></text>
    </g>
    <g
       id="g16-0-9-3-2-8"
       transform="matrix(0.53841815,0,0,0.53841815,154.78931,197.65795)"
       style="display:inline">
      <rect
         style="display:inline;fill:#eeeeee;fill-opacity:1;stroke:#000000;stroke-width:0"
         id="rect3-5-7-1-7-0-1"
         width="44.629528"
         height="44.629528"
         x="99.925385"
         y="73.870224"
         ry="11.517296" />
      <path
         id="rect12-6-8-0-9-6"
         style="fill:#ead8c0;stroke:#000000;stroke-width:0"
         d="m 111.44268,73.870224 h 33.11224 v 33.112236 a 11.517295,11.517295 135 0 1 -11.51729,11.5173 l -21.59495,0 a 11.517295,11.517295 45 0 1 -11.517295,-11.5173 l 0,-21.594941 A 11.517295,11.517295 135 0 1 111.44268,73.870224 Z"
         clip-path="url(#clipath_lpe_path-effect15-8-1-9-5-5)" />
      <text
         xml:space="preserve"
         style="font-size:38.4416px;text-align:start;writing-mode:lr-tb;direction:ltr;text-anchor:start;fill:#000000;fill-opacity:1;stroke:#000000;stroke-width:0.88;stroke-dasharray:none"
         x="111.55862"
         y="105.84314"
         id="text16-3-1-9-8-9"><tspan
           id="tspan16-6-9-5-9-8"
           style="font-style:normal;font-variant:normal;font-weight:normal;font-stretch:normal;font-family:'Courier New';-inkscape-font-specification:'Courier New';fill:#000000;fill-opacity:1;stroke-width:0.88;stroke-dasharray:none"
           x="111.55862"
           y="105.84314">U</tspan></text>
    </g>
    <g
       id="g16-2-5-5-1-0"
       transform="matrix(0.53841815,0,0,0.53841815,181.51075,197.65796)"
       style="display:inline">
      <rect
         style="display:inline;fill:#eeeeee;fill-opacity:1;stroke:#000000;stroke-width:0"
         id="rect3-5-6-3-8-7-1"
         width="44.629528"
         height="44.629528"
         x="99.925385"
         y="73.870224"
         ry="11.517296" />
      <path
         id="rect12-60-2-3-3-3"
         style="fill:#ead8c0;stroke:#000000;stroke-width:0"
         d="m 111.44268,73.870224 h 33.11224 v 33.112236 a 11.517295,11.517295 135 0 1 -11.51729,11.5173 l -21.59495,0 a 11.517295,11.517295 45 0 1 -11.517295,-11.5173 l 0,-21.594941 A 11.517295,11.517295 135 0 1 111.44268,73.870224 Z"
         clip-path="url(#clipath_lpe_path-effect15-1-3-6-6-6)" />
      <text
         xml:space="preserve"
         style="font-size:38.4416px;text-align:start;writing-mode:lr-tb;direction:ltr;text-anchor:start;fill:#000000;fill-opacity:1;stroke:#000000;stroke-width:0.88;stroke-dasharray:none"
         x="111.55862"
         y="105.84314"
         id="text16-38-5-7-3-9"><tspan
           id="tspan16-0-2-8-0-3"
           style="font-style:normal;font-variant:normal;font-weight:normal;font-stretch:normal;font-family:'Courier New';-inkscape-font-specification:'Courier New';fill:#000000;fill-opacity:1;stroke-width:0.88;stroke-dasharray:none"
           x="111.55862"
           y="105.84314">E</tspan></text>
    </g>
    <g
       id="g16-3-5-3-7-9"
       transform="matrix(0.53841815,0,0,0.53841815,208.23219,197.65796)"
       style="display:inline">
      <rect
         style="display:inline;fill:#eeeeee;fill-opacity:1;stroke:#000000;stroke-width:0"
         id="rect3-5-5-8-7-6-3"
         width="44.629528"
         height="44.629528"
         x="99.925385"
         y="73.870224"
         ry="11.517296" />
      <path
         id="rect12-1-6-9-6-6"
         style="fill:#ead8c0;stroke:#000000;stroke-width:0"
         d="m 111.44268,73.870224 h 33.11224 v 33.112236 a 11.517295,11.517295 135 0 1 -11.51729,11.5173 l -21.59495,0 a 11.517295,11.517295 45 0 1 -11.517295,-11.5173 l 0,-21.594941 A 11.517295,11.517295 135 0 1 111.44268,73.870224 Z"
         clip-path="url(#clipath_lpe_path-effect15-7-8-5-4-5)" />
      <text
         xml:space="preserve"
         style="font-size:38.4416px;text-align:start;writing-mode:lr-tb;direction:ltr;text-anchor:start;fill:#000000;fill-opacity:1;stroke:#000000;stroke-width:0.88;stroke-dasharray:none"
         x="111.55862"
         y="105.84314"
         id="text16-2-7-3-0-5"><tspan
           id="tspan16-01-7-9-2-5"
           style="font-style:normal;font-variant:normal;font-weight:normal;font-stretch:normal;font-family:'Courier New';-inkscape-font-specification:'Courier New';fill:#000000;fill-opacity:1;stroke-width:0.88;stroke-dasharray:none"
           x="111.55862"
           y="105.84314">S</tspan></text>
    </g>
    <g
       id="g16-4-2-1-8-4"
       transform="matrix(0.53841815,0,0,0.53841815,234.95363,197.65796)"
       style="display:inline">
      <rect
         style="display:inline;fill:#eeeeee;fill-opacity:1;stroke:#000000;stroke-width:0"
         id="rect3-5-3-2-8-9-0"
         width="44.629528"
         height="44.629528"
         x="99.925385"
         y="73.870224"
         ry="11.517296" />
      <path
         id="rect12-9-9-2-8-5"
         style="fill:#ead8c0;stroke:#000000;stroke-width:0"
         d="m 111.44268,73.870224 h 33.11224 v 33.112236 a 11.517295,11.517295 135 0 1 -11.51729,11.5173 l -21.59495,0 a 11.517295,11.517295 45 0 1 -11.517295,-11.5173 l 0,-21.594941 A 11.517295,11.517295 135 0 1 111.44268,73.870224 Z"
         clip-path="url(#clipath_lpe_path-effect15-4-1-5-7-1)" />
      <text
         xml:space="preserve"
         style="font-size:38.4416px;text-align:start;writing-mode:lr-tb;direction:ltr;text-anchor:start;fill:#000000;fill-opacity:1;stroke:#000000;stroke-width:0.88;stroke-dasharray:none"
         x="111.55862"
         y="105.84314"
         id="text16-8-4-8-9-0"><tspan
           id="tspan16-8-1-0-9-6"
           style="font-style:normal;font-variant:normal;font-weight:normal;font-stretch:normal;font-family:'Courier New';-inkscape-font-specification:'Courier New';fill:#000000;fill-opacity:1;stroke-width:0.88;stroke-dasharray:none"
           x="111.55862"
           y="105.84314">S</tspan></text>
    </g>
    <g
       id="g16-25-1-9-5"
       transform="matrix(0.53841815,0,0,0.53841815,261.67508,197.65796)"
       style="display:inline">
      <rect
         style="display:inline;fill:#eeeeee;fill-opacity:1;stroke:#000000;stroke-width:0"
         id="rect3-5-4-8-4-5"
         width="44.629528"
         height="44.629528"
         x="99.925385"
         y="73.870224"
         ry="11.517296" />
      <path
         id="rect12-4-4-2-1"
         style="fill:#ead8c0;stroke:#000000;stroke-width:0"
         d="m 111.44268,73.870224 h 33.11224 v 33.112236 a 11.517295,11.517295 135 0 1 -11.51729,11.5173 l -21.59495,0 a 11.517295,11.517295 45 0 1 -11.517295,-11.5173 l 0,-21.594941 A 11.517295,11.517295 135 0 1 111.44268,73.870224 Z"
         clip-path="url(#clipath_lpe_path-effect15-65-4-0-0)" />
      <text
         xml:space="preserve"
         style="font-size:38.4416px;text-align:start;writing-mode:lr-tb;direction:ltr;text-anchor:start;fill:#000000;fill-opacity:1;stroke:#000000;stroke-width:0.88;stroke-dasharray:none"
         x="111.55862"
         y="105.84314"
         id="text16-1-8-0-8"><tspan
           id="tspan16-61-6-8-9"
           style="font-style:normal;font-variant:normal;font-weight:normal;font-stretch:normal;font-family:'Courier New';-inkscape-font-specification:'Courier New';fill:#000000;fill-opacity:1;stroke-width:0.88;stroke-dasharray:none"
           x="111.55862"
           y="105.84314">E</tspan></text>
    </g>
    <g
       id="g16-0-6-0-7-6"
       transform="matrix(0.53841815,0,0,0.53841815,288.39652,197.65796)"
       style="display:inline">
      <rect
         style="display:inline;fill:#eeeeee;fill-opacity:1;stroke:#000000;stroke-width:0"
         id="rect3-5-7-3-9-8-2"
         width="44.629528"
         height="44.629528"
         x="99.925385"
         y="73.870224"
         ry="11.517296" />
      <path
         id="rect12-6-3-3-7-2"
         style="fill:#ead8c0;stroke:#000000;stroke-width:0"
         d="m 111.44268,73.870224 h 33.11224 v 33.112236 a 11.517295,11.517295 135 0 1 -11.51729,11.5173 l -21.59495,0 a 11.517295,11.517295 45 0 1 -11.517295,-11.5173 l 0,-21.594941 A 11.517295,11.517295 135 0 1 111.44268,73.870224 Z"
         clip-path="url(#clipath_lpe_path-effect15-8-7-5-8-6)" />
      <text
         xml:space="preserve"
         style="font-size:38.4416px;text-align:start;writing-mode:lr-tb;direction:ltr;text-anchor:start;fill:#000000;fill-opacity:1;stroke:#000000;stroke-width:0.88;stroke-dasharray:none"
         x="111.55862"
         y="105.84314"
         id="text16-3-5-0-3-5"><tspan
           id="tspan16-6-5-0-0-0"
           style="font-style:normal;font-variant:normal;font-weight:normal;font-stretch:normal;font-family:'Courier New';-inkscape-font-specification:'Courier New';fill:#000000;fill-opacity:1;stroke-width:0.88;stroke-dasharray:none"
           x="111.55862"
           y="105.84314">R</tspan></text>
    </g>
    <g
       id="g52-8-7-5"
       transform="translate(-59.703106,234.76624)"
       style="display:inline">
      <rect
         style="fill:#e9866e;fill-opacity:1;stroke:none;stroke-width:0.879999;stroke-dasharray:none"
         id="rect41-7-6-2"
         width="7.7283611"
         height="24.02935"
         x="70.40274"
         y="2.6647818"
         ry="1.6209252" />
      <rect
         style="display:inline;fill:#f4bc9c;fill-opacity:1;stroke:none;stroke-width:0.879999;stroke-dasharray:none"
         id="rect41-8-6-4-5"
         width="7.7283611"
         height="24.02935"
         x="70.40274"
         y="2.6647809"
         ry="1.6209252"
         clip-path="url(#clipPath52-0-2-7)" />
    </g>
    <g
       id="g52-35-3-2-2"
       transform="translate(-68.311366,234.76624)"
       style="display:inline">
      <rect
         style="fill:#e9866e;fill-opacity:1;stroke:none;stroke-width:0.879999;stroke-dasharray:none"
         id="rect41-1-5-1-0"
         width="7.7283611"
         height="24.02935"
         x="70.40274"
         y="2.6647818"
         ry="1.6209252" />
      <rect
         style="display:inline;fill:#f4bc9c;fill-opacity:1;stroke:none;stroke-width:0.879999;stroke-dasharray:none"
         id="rect41-8-2-6-9-6"
         width="7.7283611"
         height="24.02935"
         x="70.40274"
         y="2.6647809"
         ry="1.6209252"
         clip-path="url(#clipPath52-1-5-9-4)" />
    </g>
    <g
       id="g52-35-0-5-1-7"
       transform="translate(-77.039326,234.76624)"
       style="display:inline">
      <rect
         style="fill:#e9866e;fill-opacity:1;stroke:none;stroke-width:0.879999;stroke-dasharray:none"
         id="rect41-1-3-83-6-2"
         width="7.7283611"
         height="24.02935"
         x="70.40274"
         y="2.6647818"
         ry="1.6209252" />
      <rect
         style="display:inline;fill:#f4bc9c;fill-opacity:1;stroke:none;stroke-width:0.879999;stroke-dasharray:none"
         id="rect41-8-2-4-9-0-8"
         width="7.7283611"
         height="24.02935"
         x="70.40274"
         y="2.6647809"
         ry="1.6209252"
         clip-path="url(#clipPath52-1-6-7-3-1)" />
    </g>
    <g
       id="g52-8-7-5-5"
       transform="translate(101.04632,234.76624)"
       style="display:inline">
      <rect
         style="fill:#e9866e;fill-opacity:1;stroke:none;stroke-width:0.879999;stroke-dasharray:none"
         id="rect41-7-6-2-6"
         width="7.7283611"
         height="24.02935"
         x="70.40274"
         y="2.6647818"
         ry="1.6209252" />
      <rect
         style="display:inline;fill:#f4bc9c;fill-opacity:1;stroke:none;stroke-width:0.879999;stroke-dasharray:none"
         id="rect41-8-6-4-5-5"
         width="7.7283611"
         height="24.02935"
         x="70.40274"
         y="2.6647809"
         ry="1.6209252"
         clip-path="url(#clipPath52-0-2-7-5)" />
    </g>
    <g
       id="g52-35-3-2-2-9"
       transform="translate(92.438063,234.76624)"
       style="display:inline">
      <rect
         style="fill:#e9866e;fill-opacity:1;stroke:none;stroke-width:0.879999;stroke-dasharray:none"
         id="rect41-1-5-1-0-2"
         width="7.7283611"
         height="24.02935"
         x="70.40274"
         y="2.6647818"
         ry="1.6209252" />
      <rect
         style="display:inline;fill:#f4bc9c;fill-opacity:1;stroke:none;stroke-width:0.879999;stroke-dasharray:none"
         id="rect41-8-2-6-9-6-6"
         width="7.7283611"
         height="24.02935"
         x="70.40274"
         y="2.6647809"
         ry="1.6209252"
         clip-path="url(#clipPath52-1-5-9-4-7)" />
    </g>
    <g
       id="g52-35-0-5-1-7-5"
       transform="translate(83.710107,234.76624)"
       style="display:inline">
      <rect
         style="fill:#e9866e;fill-opacity:1;stroke:none;stroke-width:0.879999;stroke-dasharray:none"
         id="rect41-1-3-83-6-2-2"
         width="7.7283611"
         height="24.02935"
         x="70.40274"
         y="2.6647818"
         ry="1.6209252" />
      <rect
         style="display:inline;fill:#f4bc9c;fill-opacity:1;stroke:none;stroke-width:0.879999;stroke-dasharray:none"
         id="rect41-8-2-4-9-0-8-3"
         width="7.7283611"
         height="24.02935"
         x="70.40274"
         y="2.6647809"
         ry="1.6209252"
         clip-path="url(#clipPath52-1-6-7-3-1-1)" />
    </g>
    <g
       id="g52-5-4-3-0"
       transform="translate(315.85308,234.76625)"
       style="display:inline">
      <rect
         style="fill:#e9866e;fill-opacity:1;stroke:none;stroke-width:0.879999;stroke-dasharray:none"
         id="rect41-6-8-3-0"
         width="7.7283611"
         height="24.02935"
         x="70.40274"
         y="2.6647818"
         ry="1.6209252" />
      <rect
         style="display:inline;fill:#f4bc9c;fill-opacity:1;stroke:none;stroke-width:0.879999;stroke-dasharray:none"
         id="rect41-8-4-3-6-6"
         width="7.7283611"
         height="24.02935"
         x="70.40274"
         y="2.6647809"
         ry="1.6209252"
         clip-path="url(#clipPath52-5-2-0-5)" />
    </g>
    <g
       id="g52-35-8-9-2-8"
       transform="translate(307.24481,234.76625)"
       style="display:inline">
      <rect
         style="fill:#e9866e;fill-opacity:1;stroke:none;stroke-width:0.879999;stroke-dasharray:none"
         id="rect41-1-2-7-2-3"
         width="7.7283611"
         height="24.02935"
         x="70.40274"
         y="2.6647818"
         ry="1.6209252" />
      <rect
         style="display:inline;fill:#f4bc9c;fill-opacity:1;stroke:none;stroke-width:0.879999;stroke-dasharray:none"
         id="rect41-8-2-1-6-1-0"
         width="7.7283611"
         height="24.02935"
         x="70.40274"
         y="2.6647809"
         ry="1.6209252"
         clip-path="url(#clipPath52-1-67-0-0-4)" />
    </g>
    <g
       id="g52-35-0-6-4-4-6"
       transform="translate(298.51686,234.76625)"
       style="display:inline">
      <rect
         style="fill:#e9866e;fill-opacity:1;stroke:none;stroke-width:0.879999;stroke-dasharray:none"
         id="rect41-1-3-8-5-3-4"
         width="7.7283611"
         height="24.02935"
         x="70.40274"
         y="2.6647818"
         ry="1.6209252" />
      <rect
         style="display:inline;fill:#f4bc9c;fill-opacity:1;stroke:none;stroke-width:0.879999;stroke-dasharray:none"
         id="rect41-8-2-4-3-8-2-3"
         width="7.7283611"
         height="24.02935"
         x="70.40274"
         y="2.6647809"
         ry="1.6209252"
         clip-path="url(#clipPath52-1-6-4-3-2-8)" />
    </g>
  </g>
</svg>
